<svg xmlns="http://www.w3.org/2000/svg" width="20" height="20" viewBox="0 0 20 20" fill="none">
  <path d="M 3 20 C 2.45 20 1.979 19.804 1.587 19.413 C 1.196 19.021 1 18.55 1 18 L 1 6.725 C 0.7 6.542 0.458 6.304 0.275 6.012 C 0.092 5.721 0 5.383 0 5 L 0 2 C 0 1.45 0.196 0.979 0.587 0.587 C 0.979 0.196 1.45 0 2 0 L 18 0 C 18.55 0 19.021 0.196 19.413 0.587 C 19.804 0.979 20 1.45 20 2 L 20 5 C 20 5.383 19.908 5.721 19.725 6.012 C 19.542 6.304 19.3 6.542 19 6.725 L 19 18 C 19 18.55 18.804 19.021 18.413 19.413 C 18.021 19.804 17.55 20 17 20 L 3 20 L 3 20 M 3 7 L 3 18 L 3 18 L 3 18 L 17 18 L 17 18 L 17 18 L 17 7 L 3 7 L 3 7 M 2 5 L 18 5 L 18 5 L 18 5 L 18 2 L 18 2 L 18 2 L 2 2 L 2 2 L 2 2 L 2 5 L 2 5 L 2 5 L 2 5 M 7 12 L 13 12 L 13 10 L 7 10 L 7 12 L 7 12 M 10 12.5 L 10 12.5 L 10 12.5 L 10 12.5 L 10 12.5 L 10 12.5 L 10 12.5 L 10 12.5 L 10 12.5 L 10 12.5" fill="currentColor" fill-rule="nonzero"></path>
</svg>