<svg xmlns="http://www.w3.org/2000/svg" width="21.550" height="20.500" viewBox="0 0 21.550 20.500" fill="none">
  <path d="M 0 20.5 L 5 6.5 L 14 15.5 L 0 20.5 L 0 20.5 M 3.3 17.2 L 10.35 14.7 L 5.8 10.15 L 3.3 17.2 L 3.3 17.2 M 12.55 11.05 L 11.5 10 L 17.1 4.4 C 17.633 3.867 18.275 3.6 19.025 3.6 C 19.775 3.6 20.417 3.867 20.95 4.4 L 21.55 5 L 20.5 6.05 L 19.9 5.45 C 19.667 5.217 19.375 5.1 19.025 5.1 C 18.675 5.1 18.383 5.217 18.15 5.45 L 12.55 11.05 L 12.55 11.05 M 8.55 7.05 L 7.5 6 L 8.1 5.4 C 8.333 5.167 8.45 4.883 8.45 4.55 C 8.45 4.217 8.333 3.933 8.1 3.7 L 7.45 3.05 L 8.5 2 L 9.15 2.65 C 9.683 3.183 9.95 3.817 9.95 4.55 C 9.95 5.283 9.683 5.917 9.15 6.45 L 8.55 7.05 L 8.55 7.05 M 10.55 9.05 L 9.5 8 L 13.1 4.4 C 13.333 4.167 13.45 3.875 13.45 3.525 C 13.45 3.175 13.333 2.883 13.1 2.65 L 11.5 1.05 L 12.55 0 L 14.15 1.6 C 14.683 2.133 14.95 2.775 14.95 3.525 C 14.95 4.275 14.683 4.917 14.15 5.45 L 10.55 9.05 L 10.55 9.05 M 14.55 13.05 L 13.5 12 L 15.1 10.4 C 15.633 9.867 16.275 9.6 17.025 9.6 C 17.775 9.6 18.417 9.867 18.95 10.4 L 20.55 12 L 19.5 13.05 L 17.9 11.45 C 17.667 11.217 17.375 11.1 17.025 11.1 C 16.675 11.1 16.383 11.217 16.15 11.45 L 14.55 13.05 L 14.55 13.05 M 3.3 17.2 L 3.3 17.2 L 3.3 17.2 L 3.3 17.2 L 3.3 17.2" fill="currentColor" fill-rule="nonzero"></path>
</svg>