<svg xmlns="http://www.w3.org/2000/svg" width="151" height="33" viewBox="0 0 151 33" fill="none">
  <path d="M 3.678 32.477 C 3.004 32.477 2.427 32.24 1.946 31.765 C 1.466 31.291 1.226 30.721 1.226 30.055 L 1.226 16.402 C 0.858 16.18 0.562 15.892 0.337 15.539 C 0.112 15.186 0 14.777 0 14.313 L 0 10.68 C 0 10.014 0.24 9.444 0.72 8.97 C 1.201 8.496 1.778 8.258 2.452 8.258 L 22.069 8.258 C 22.744 8.258 23.321 8.496 23.801 8.97 C 24.281 9.444 24.521 10.014 24.521 10.68 L 24.521 14.313 C 24.521 14.777 24.409 15.186 24.184 15.539 C 23.959 15.892 23.663 16.18 23.295 16.402 L 23.295 30.055 C 23.295 30.721 23.055 31.291 22.575 31.765 C 22.095 32.24 21.517 32.477 20.843 32.477 L 3.678 32.477 Z M 3.678 16.735 L 3.678 30.055 L 20.843 30.055 L 20.843 16.735 L 3.678 16.735 Z M 2.452 14.313 L 22.069 14.313 L 22.069 10.68 L 2.452 10.68 L 2.452 14.313 Z M 8.582 22.79 L 15.939 22.79 L 15.939 20.368 L 8.582 20.368 L 8.582 22.79 Z" fill="currentColor" fill-rule="nonzero"></path>
  <path d="M 32.604 32.477 L 32.604 0 L 38.606 0 L 38.606 32.477 L 32.604 32.477 Z" fill="currentColor" fill-rule="nonzero"></path>
  <path d="M 42.974 32.477 L 42.974 8.762 L 48.403 8.762 L 48.403 13.427 L 47.962 12.598 C 48.521 11.174 49.433 10.099 50.699 9.373 C 51.993 8.617 53.494 8.239 55.201 8.239 C 56.966 8.239 58.526 8.617 59.879 9.373 C 61.262 10.128 62.336 11.189 63.102 12.555 C 63.867 13.892 64.249 15.446 64.249 17.219 L 64.249 32.477 L 58.467 32.477 L 58.467 18.571 C 58.467 17.524 58.261 16.624 57.849 15.868 C 57.437 15.112 56.863 14.531 56.128 14.124 C 55.421 13.688 54.583 13.47 53.612 13.47 C 52.67 13.47 51.832 13.688 51.096 14.124 C 50.36 14.531 49.786 15.112 49.375 15.868 C 48.963 16.624 48.757 17.524 48.757 18.571 L 48.757 32.477 L 42.974 32.477 Z" fill="currentColor" fill-rule="nonzero"></path>
  <path d="M 68.153 32.477 L 68.153 0 L 73.891 0 L 86.205 16.522 L 83.469 16.522 L 95.519 0 L 101.257 0 L 101.257 32.477 L 95.21 32.477 L 95.21 6.757 L 97.549 7.324 L 85.058 23.758 L 84.352 23.758 L 72.169 7.324 L 74.156 6.757 L 74.156 32.477 L 68.153 32.477 Z" fill="currentColor" fill-rule="nonzero"></path>
  <path d="M 112.876 33 C 111.198 33 109.742 32.724 108.506 32.172 C 107.27 31.62 106.314 30.835 105.637 29.818 C 104.96 28.771 104.622 27.565 104.622 26.199 C 104.622 24.892 104.916 23.729 105.505 22.712 C 106.093 21.666 107.005 20.794 108.241 20.096 C 109.477 19.399 111.037 18.905 112.92 18.614 L 120.776 17.35 L 120.776 21.709 L 114.023 22.843 C 112.876 23.046 112.022 23.41 111.463 23.933 C 110.904 24.456 110.625 25.139 110.625 25.982 C 110.625 26.795 110.934 27.449 111.552 27.943 C 112.199 28.408 112.993 28.641 113.935 28.641 C 115.141 28.641 116.201 28.394 117.113 27.9 C 118.055 27.376 118.776 26.664 119.276 25.764 C 119.805 24.863 120.07 23.875 120.07 22.799 L 120.07 16.696 C 120.07 15.679 119.658 14.836 118.834 14.168 C 118.04 13.47 116.981 13.122 115.656 13.122 C 114.421 13.122 113.317 13.456 112.346 14.124 C 111.404 14.764 110.713 15.621 110.272 16.696 L 105.549 14.429 C 106.02 13.18 106.755 12.104 107.756 11.203 C 108.786 10.273 109.992 9.547 111.375 9.024 C 112.758 8.501 114.259 8.239 115.877 8.239 C 117.849 8.239 119.585 8.602 121.085 9.329 C 122.586 10.026 123.748 11.015 124.572 12.293 C 125.426 13.543 125.852 15.011 125.852 16.696 L 125.852 32.477 L 120.379 32.477 L 120.379 28.423 L 121.615 28.336 C 120.997 29.353 120.262 30.21 119.408 30.908 C 118.555 31.576 117.584 32.099 116.495 32.477 C 115.406 32.826 114.2 33 112.876 33 Z" fill="currentColor" fill-rule="nonzero"></path>
  <path d="M 129.725 32.477 L 129.725 8.762 L 135.154 8.762 L 135.154 13.427 L 134.713 12.598 C 135.272 11.174 136.184 10.099 137.45 9.373 C 138.744 8.617 140.245 8.239 141.952 8.239 C 143.717 8.239 145.277 8.617 146.63 9.373 C 148.013 10.128 149.087 11.189 149.852 12.555 C 150.617 13.892 151 15.446 151 17.219 L 151 32.477 L 145.218 32.477 L 145.218 18.571 C 145.218 17.524 145.012 16.624 144.6 15.868 C 144.188 15.112 143.614 14.531 142.879 14.124 C 142.172 13.688 141.334 13.47 140.363 13.47 C 139.421 13.47 138.582 13.688 137.847 14.124 C 137.111 14.531 136.537 15.112 136.125 15.868 C 135.713 16.624 135.507 17.524 135.507 18.571 L 135.507 32.477 L 129.725 32.477 Z" fill="currentColor" fill-rule="nonzero"></path>
</svg>