<svg width="151" height="33" viewBox="0 0 151 33" fill="none" xmlns="http://www.w3.org/2000/svg">
<g id="Vector">
<path d="M3.6782 32.4769C3.00386 32.4769 2.42659 32.2397 1.94638 31.7655C1.46617 31.2912 1.22607 30.721 1.22607 30.055V16.4019C0.858246 16.1799 0.561947 15.8923 0.337168 15.5391C0.112389 15.186 0 14.7773 0 14.3131V10.6803C0 10.0143 0.240104 9.44417 0.720314 8.96989C1.20052 8.49562 1.7778 8.25848 2.45213 8.25848H22.0692C22.7435 8.25848 23.3208 8.49562 23.801 8.96989C24.2812 9.44417 24.5213 10.0143 24.5213 10.6803V14.3131C24.5213 14.7773 24.4089 15.186 24.1841 15.5391C23.9594 15.8923 23.6631 16.1799 23.2952 16.4019V30.055C23.2952 30.721 23.0551 31.2912 22.5749 31.7655C22.0947 32.2397 21.5175 32.4769 20.8431 32.4769H3.6782ZM3.6782 16.7349V30.055H20.8431V16.7349H3.6782ZM2.45213 14.3131H22.0692V10.6803H2.45213V14.3131ZM8.58246 22.7895H15.9389V20.3677H8.58246V22.7895Z" fill="var(--fill-0, #31694D)"/>
<path d="M32.6035 32.4769V0H38.6064V32.4769H32.6035Z" fill="var(--fill-0, #31694D)"/>
<path d="M42.9745 32.4769V8.76222H48.4035V13.4267L47.9621 12.5984C48.5212 11.1744 49.4334 10.0991 50.6987 9.37252C51.9934 8.61691 53.4941 8.2391 55.2008 8.2391C56.9663 8.2391 58.5259 8.61691 59.8794 9.37252C61.2624 10.1281 62.3365 11.1889 63.1015 12.5548C63.8666 13.8917 64.2491 15.4465 64.2491 17.2193V32.4769H58.467V18.5707C58.467 17.5244 58.261 16.6235 57.8491 15.8679C57.4371 15.1123 56.8633 14.531 56.1277 14.1242C55.4215 13.6882 54.5828 13.4703 53.6118 13.4703C52.6702 13.4703 51.8315 13.6882 51.0959 14.1242C50.3603 14.531 49.7865 15.1123 49.3745 15.8679C48.9626 16.6235 48.7566 17.5244 48.7566 18.5707V32.4769H42.9745Z" fill="var(--fill-0, #31694D)"/>
<path d="M68.1527 32.4769V0H73.8907L86.2053 16.5218H83.4688L95.5185 0H101.257V32.4769H95.2096V6.75694L97.5489 7.32365L85.0577 23.7583H84.3515L72.1693 7.32365L74.1556 6.75694V32.4769H68.1527Z" fill="var(--fill-0, #31694D)"/>
<path d="M112.876 33C111.198 33 109.742 32.7239 108.506 32.1717C107.27 31.6196 106.314 30.8349 105.637 29.8177C104.96 28.7715 104.622 27.5654 104.622 26.1995C104.622 24.8917 104.916 23.7292 105.505 22.712C106.093 21.6658 107.005 20.7939 108.241 20.0964C109.477 19.3989 111.037 18.9049 112.92 18.6143L120.776 17.3501V21.7094L114.023 22.8428C112.876 23.0462 112.022 23.4095 111.463 23.9326C110.904 24.4557 110.625 25.1387 110.625 25.9815C110.625 26.7952 110.934 27.4491 111.552 27.9432C112.199 28.4082 112.993 28.6407 113.935 28.6407C115.141 28.6407 116.201 28.3937 117.113 27.8996C118.055 27.3765 118.776 26.6645 119.276 25.7635C119.805 24.8626 120.07 23.8745 120.07 22.7992V16.6962C120.07 15.679 119.658 14.8362 118.834 14.1678C118.04 13.4703 116.981 13.1215 115.656 13.1215C114.421 13.1215 113.317 13.4557 112.346 14.1242C111.404 14.7635 110.713 15.6209 110.272 16.6962L105.549 14.4293C106.02 13.1797 106.755 12.1044 107.756 11.2034C108.786 10.2734 109.992 9.5469 111.375 9.02378C112.758 8.50066 114.259 8.2391 115.877 8.2391C117.849 8.2391 119.585 8.60238 121.085 9.32893C122.586 10.0264 123.748 11.0145 124.572 12.2933C125.426 13.5429 125.852 15.0106 125.852 16.6962V32.4769H120.379V28.4227L121.615 28.3355C120.997 29.3527 120.262 30.21 119.408 30.9075C118.555 31.576 117.584 32.0991 116.495 32.4769C115.406 32.8256 114.2 33 112.876 33Z" fill="var(--fill-0, #31694D)"/>
<path d="M129.725 32.4769V8.76222H135.154V13.4267L134.713 12.5984C135.272 11.1744 136.184 10.0991 137.45 9.37252C138.744 8.61691 140.245 8.2391 141.952 8.2391C143.717 8.2391 145.277 8.61691 146.63 9.37252C148.013 10.1281 149.087 11.1889 149.852 12.5548C150.617 13.8917 151 15.4465 151 17.2193V32.4769H145.218V18.5707C145.218 17.5244 145.012 16.6235 144.6 15.8679C144.188 15.1123 143.614 14.531 142.879 14.1242C142.172 13.6882 141.334 13.4703 140.363 13.4703C139.421 13.4703 138.582 13.6882 137.847 14.1242C137.111 14.531 136.537 15.1123 136.125 15.8679C135.713 16.6235 135.507 17.5244 135.507 18.5707V32.4769H129.725Z" fill="var(--fill-0, #31694D)"/>
</g>
</svg>
